<?xml version="1.0" encoding="utf-8"?>
<!-- Generator: Adobe Illustrator 15.0.0, SVG Export Plug-In . SVG Version: 6.00 Build 0)  -->
<!DOCTYPE svg PUBLIC "-//W3C//DTD SVG 1.1//EN" "http://www.w3.org/Graphics/SVG/1.1/DTD/svg11.dtd">
<svg version="1.1" xmlns="http://www.w3.org/2000/svg" xmlns:xlink="http://www.w3.org/1999/xlink" x="0px" y="0px" width="36px"
	 height="36px" viewBox="0 0 36 36" enable-background="new 0 0 36 36" xml:space="preserve">
<g id="Capa_1">
	<g>
		<path fill="#2F5074" d="M28.263,36H7.737C3.464,36,0,32.536,0,28.263V7.737C0,3.464,3.464,0,7.737,0h20.526
			C32.537,0,36,3.464,36,7.737v20.526C36,32.536,32.537,36,28.263,36z"/>
		<g display="none">
			<path display="inline" fill="#00F5F1" d="M19.439,27h-2.243l-1.911-6.258h-5.76L7.698,27h-2.16l5.704-19.385h2.299L19.439,27z
				 M14.787,18.692l-2.409-7.865l-2.326,7.865H14.787z"/>
			<path display="inline" fill="#00F5F1" d="M30.351,27h-1.911v-1.024c-0.793,0.886-1.865,1.329-3.213,1.329
				c-3.471,0-5.205-1.688-5.205-5.066v-9.112h1.993v9.11c0,2.123,1.07,3.186,3.212,3.186c2.087,0,3.131-1.07,3.131-3.213v-9.083
				h1.993V27z"/>
		</g>
	</g>
</g>
<g id="圖層_2">
	<g>
		<path fill="#00F5F1" d="M5.601,26.643V10.334c0-0.848,0.212-1.482,0.637-1.906c0.425-0.425,0.973-0.636,1.645-0.636
			c0.693,0,1.255,0.21,1.685,0.627c0.43,0.419,0.646,1.058,0.646,1.915v16.308c0,0.855-0.215,1.496-0.646,1.92
			c-0.429,0.422-0.992,0.635-1.685,0.635c-0.662,0-1.207-0.215-1.637-0.644C5.816,28.126,5.601,27.488,5.601,26.643z"/>
		<path fill="#00F5F1" d="M30.14,11.604H25.11v15.039c0,0.866-0.21,1.506-0.636,1.927c-0.422,0.418-0.973,0.628-1.646,0.628
			c-0.681,0-1.236-0.213-1.668-0.635c-0.427-0.424-0.642-1.064-0.642-1.92V11.604h-5.03c-0.786,0-1.372-0.157-1.756-0.472
			c-0.383-0.316-0.573-0.732-0.573-1.25c0-0.537,0.198-0.96,0.597-1.271c0.398-0.31,0.977-0.465,1.731-0.465h14.65
			c0.797,0,1.389,0.161,1.777,0.479c0.389,0.32,0.584,0.74,0.584,1.257s-0.197,0.934-0.592,1.25
			C31.517,11.447,30.925,11.604,30.14,11.604z"/>
	</g>
</g>
</svg>
